<?xml version="1.0" standalone="no"?>
<!DOCTYPE svg PUBLIC "-//W3C//DTD SVG 20010904//EN"
 "http://www.w3.org/TR/2001/REC-SVG-20010904/DTD/svg10.dtd">
<svg version="1.0" xmlns="http://www.w3.org/2000/svg"
 width="512.000000pt" height="512.000000pt" viewBox="0 0 512.000000 512.000000"
 preserveAspectRatio="xMidYMid meet">

<g transform="translate(0.000000,512.000000) scale(0.100000,-0.100000)"
fill="#000000" stroke="none">
<path d="M2800 4909 c-120 -20 -74 23 -1356 -1261 -1166 -1167 -1202 -1205
-1224 -1263 -16 -45 -21 -75 -18 -120 9 -126 -35 -77 981 -1092 890 -889 935
-932 990 -952 73 -27 141 -27 214 0 56 20 108 71 1261 1223 959 958 1208 1211
1227 1251 13 28 29 82 35 120 7 46 10 366 8 950 l-3 880 -31 65 c-40 82 -92
134 -174 174 l-65 31 -895 1 c-501 1 -919 -2 -950 -7z m1780 -208 c33 -7 54
-20 81 -49 32 -34 38 -48 44 -103 3 -35 5 -433 3 -884 -2 -640 -6 -827 -16
-850 -7 -16 -545 -562 -1195 -1213 -1119 -1119 -1184 -1182 -1217 -1182 -33 0
-85 50 -947 912 -864 864 -913 915 -913 948 0 33 62 97 1188 1222 1271 1270
1185 1191 1292 1201 78 8 1638 6 1680 -2z"/>
<path d="M3910 4400 c-227 -47 -374 -283 -316 -508 78 -307 453 -414 686 -196
216 202 142 577 -136 683 -61 24 -173 33 -234 21z m158 -225 c74 -32 121 -102
122 -183 0 -119 -119 -216 -235 -190 -151 34 -210 221 -102 326 65 63 138 79
215 47z"/>
</g>
</svg>
