<?xml version="1.0" encoding="UTF-8"?>
<svg version="1.1" xmlns="http://www.w3.org/2000/svg" width="256" height="256">
<path d="M0 0 C1.05137146 -0.01149078 2.10274292 -0.02298157 3.18597412 -0.03482056 C4.34440826 -0.0422226 5.50284241 -0.04962463 6.69638062 -0.05725098 C7.91277222 -0.06864105 9.12916382 -0.08003113 10.38241577 -0.09176636 C14.42374013 -0.12689449 18.46503091 -0.15355169 22.50643921 -0.1763916 C23.19440063 -0.18033747 23.88236205 -0.18428333 24.59117079 -0.18834877 C31.08232811 -0.22477737 37.57349635 -0.25621603 44.06472206 -0.27745819 C52.36079462 -0.30500895 60.65600996 -0.35572065 68.9517256 -0.43793249 C74.78792741 -0.49380471 80.6238973 -0.52270597 86.46035707 -0.5319314 C89.94416408 -0.53817789 93.42696643 -0.55619621 96.9104805 -0.60331726 C100.80290557 -0.65531523 104.6942201 -0.65152824 108.58700562 -0.64318848 C110.30643875 -0.67858231 110.30643875 -0.67858231 112.06060791 -0.71469116 C117.71554114 -0.65610435 121.2220641 -0.2656915 125.58660889 3.50317383 C126.75847261 4.70145781 127.90746729 5.92263104 129.02987671 7.1673584 C130.20320557 8.31836909 131.38091825 9.46494675 132.56503296 10.6048584 C133.74329412 11.78989782 134.91900454 12.97747792 136.09237671 14.1673584 C137.04575928 15.1264209 137.04575928 15.1264209 138.0184021 16.1048584 C140.69895686 18.80154323 143.37342335 21.5042357 146.0484314 24.2064209 C155.24981909 33.55585056 155.24981909 33.55585056 164.9727478 42.35046387 C169.54506489 46.3888194 173.82992711 50.7422721 178.14974976 55.04699707 C179.84951621 56.73695671 181.55967245 58.41594414 183.27011108 60.09509277 C184.36386567 61.18232423 185.45698741 62.2701928 186.54940796 63.35876465 C187.05567215 63.85268204 187.56193634 64.34659943 188.08354187 64.85548401 C193.46913836 70.27514521 195.40297799 74.83566429 195.41755676 82.45422363 C195.42563507 83.52137053 195.42563507 83.52137053 195.43387657 84.61007595 C195.44812783 86.98221318 195.44105975 89.35379014 195.43392944 91.72595215 C195.43963446 93.43137052 195.44659922 95.13678506 195.45472717 96.8421936 C195.47265781 101.46611579 195.47149055 106.0898482 195.46578479 110.71379471 C195.46269325 114.57574421 195.4687849 118.43765724 195.47482353 122.29960155 C195.48886641 131.4101738 195.48730902 140.52065226 195.47592163 149.63122559 C195.46443625 159.0278109 195.47852367 168.42411095 195.50531811 177.82065868 C195.52747175 185.89216465 195.53411337 193.96358103 195.52824169 202.03511524 C195.52487064 206.85423935 195.52729724 211.67318053 195.54449272 216.49227905 C195.55995479 221.02320641 195.55601461 225.55371082 195.53718758 230.08462143 C195.53349986 231.74626459 195.53661552 233.40793904 195.54707336 235.06955338 C195.560273 237.34035413 195.5487468 239.60975246 195.53108215 241.88049316 C195.53087287 243.15030533 195.53066359 244.42011749 195.53044796 245.72840881 C194.93763289 249.80107805 193.58825963 251.98162671 191.02987671 255.1673584 C187.98145427 256.69156962 184.80310712 256.31902541 181.45802307 256.32125854 C180.66763289 256.3256408 179.87724271 256.33002305 179.06290132 256.3345381 C176.39979116 256.34795164 173.7367141 256.35411066 171.07357788 256.36022949 C169.17008819 256.36812838 167.2666 256.3763972 165.3631134 256.38500977 C159.09970535 256.41125225 152.83629053 256.42653858 146.57284546 256.4407959 C144.41906543 256.44615446 142.26528544 256.45153197 140.11150551 256.45692825 C131.15477548 256.47855931 122.19804727 256.49729742 113.24129772 256.50855064 C100.39216173 256.52479888 87.54332773 256.55799541 74.6943056 256.61495149 C65.6666609 256.65360854 56.63909713 256.67317825 47.61137182 256.67847121 C42.21591262 256.68213018 36.82077533 256.6942095 31.4254055 256.72657394 C26.35035705 256.75658034 21.27582655 256.76299295 16.20070839 256.75119019 C14.33705849 256.75096883 12.47338507 256.75932457 10.6098175 256.77684402 C8.06681099 256.79945142 5.5256961 256.79128114 2.98268127 256.77536011 C2.24376575 256.78924219 1.50485023 256.80312428 0.74354333 256.81742704 C-3.19687937 256.75656819 -4.81832934 256.2921744 -7.90467358 253.75435829 C-10.44386917 250.57398615 -11.09465277 249.12032153 -11.10434437 245.15861893 C-11.10880221 244.31535529 -11.11326006 243.47209166 -11.11785299 242.60327458 C-11.11766862 241.6715835 -11.11748426 240.73989241 -11.11729431 239.77996826 C-11.120971 238.79427314 -11.12464769 237.80857801 -11.12843579 236.79301333 C-11.13950532 233.46889662 -11.14332199 230.14481113 -11.14712524 226.82067871 C-11.1533874 224.44591166 -11.16003398 222.07114559 -11.16703796 219.69638062 C-11.18628967 212.55437672 -11.1968698 205.41237222 -11.20576575 198.27034962 C-11.21014759 194.90796194 -11.21551469 191.54557583 -11.22075462 188.18318939 C-11.23776807 177.00723726 -11.25226238 165.83128612 -11.25950336 154.65532303 C-11.2614133 151.75438689 -11.26333362 148.85345076 -11.26528931 145.95251465 C-11.26577305 145.23149074 -11.26625679 144.51046683 -11.26675519 143.76759371 C-11.275056 132.08671191 -11.3003932 120.40593251 -11.33286998 108.72509542 C-11.36593352 96.73556949 -11.3839515 84.74609561 -11.38714761 72.75652385 C-11.38931342 66.02362518 -11.3980723 59.29087581 -11.42360878 52.55802155 C-11.44683169 46.22479088 -11.45114589 39.89182919 -11.4408474 33.55856705 C-11.44035053 31.23254377 -11.44671518 28.9065075 -11.46040344 26.58052444 C-11.47803288 23.40758572 -11.47105972 20.23562163 -11.45787048 17.06268311 C-11.46883973 16.13991491 -11.47980898 15.21714671 -11.49111062 14.26641583 C-11.43429418 8.61386987 -10.68354492 5.5004645 -6.97012329 1.1673584 C-4.48088522 -0.07726064 -2.78611981 0.02482452 0 0 Z M9.02987671 20.1673584 C9.02987671 91.4473584 9.02987671 162.7273584 9.02987671 236.1673584 C63.80987671 236.1673584 118.58987671 236.1673584 175.02987671 236.1673584 C175.02987671 186.9973584 175.02987671 137.8273584 175.02987671 87.1673584 C145.32987671 86.6723584 145.32987671 86.6723584 115.02987671 86.1673584 C110.02987671 83.1673584 110.02987671 83.1673584 109.02987671 81.1673584 C108.90982124 79.22764462 108.85254327 77.28392224 108.82455444 75.34069824 C108.80437256 74.10247314 108.78419067 72.86424805 108.76339722 71.58850098 C108.73868347 69.62819946 108.73868347 69.62819946 108.71347046 67.6282959 C108.69481934 66.43115967 108.67616821 65.23402344 108.6569519 64.00061035 C108.58848381 59.51460379 108.5284441 55.0284718 108.46737671 50.5423584 C108.25081421 35.5067334 108.25081421 35.5067334 108.02987671 20.1673584 C75.35987671 20.1673584 42.68987671 20.1673584 9.02987671 20.1673584 Z M128.02987671 36.1673584 C128.02987671 46.3973584 128.02987671 56.6273584 128.02987671 67.1673584 C138.58987671 67.1673584 149.14987671 67.1673584 160.02987671 67.1673584 C155.46110781 61.77630279 155.46110781 61.77630279 150.66268921 56.6673584 C150.09082886 56.09348389 149.51896851 55.51960938 148.92977905 54.92834473 C148.34406128 54.34721924 147.75834351 53.76609375 147.15487671 53.1673584 C146.23569458 52.25216431 146.23569458 52.25216431 145.29794312 51.31848145 C139.80889917 45.88678138 134.21110086 40.80327651 128.02987671 36.1673584 Z " fill="#000000" transform="translate(35.970123291015625,-0.1673583984375)"/>
</svg>
